Patient4_TMGait_0pt8_01_right_04_EMG.mot
version=1
nRows=27
nColumns=33
inDegrees=no
endheader
time	1LAddLong	2LGlutMax	3LGlutMed	4LIliopsoas	5LSemiMemb	6LBicFemLong	7LRecFem	8LVastMed	9LVastLat	10LGasMed	11LTibAnt	12lTibPost	13LPeroneusLong	14LSol	15LExtDigLong	16LFlexDigLong	17RAddLong	18RGlutMax	19RGlutMed	20RIliopsoas	21RSemiMemb	22RBicFemLong	23RRecFem	24RVastMed	25RVastLat	26RGasMed	27RTibAnt	28RTibPost	29RPeroneusLong	30RSol	31RExtDigLong	32RFlexDigLong
5.368	0.009766	-0.088806	0.12131	-0.002289	0.004425	0.001221	0.072937	-0.011749	0.028076	-0.083618	0.011902	-0.002136	0.18112	-0.027313	-0.036926	-0.012054	-0.092926	-0.19089	0.97214	-0.048828	0.74966	0.16373	-0.011444	0.052795	-0.013275	-0.001984	0.040283	-0.001221	0.58304	-0.001526	-0.00061	0.010223
5.369	0.005646	-0.080261	0.17258	0.007935	-0.003815	0.011292	0.06958	-0.007629	0.021362	-0.069122	0.023041	-0.008545	0.1593	-0.19363	-0.061188	0.00824	-0.017853	-0.14206	0.79071	0.01358	0.32425	0.039215	0.043335	0.010986	-0.01709	-0.000916	0.25665	-0.002594	-0.21591	-0.040283	0.000153	0.005035
5.37	0.004425	-0.044556	0.13672	0.010834	0.001221	0.004578	0.095215	-0.003662	-0.001373	-0.04837	0.036469	-0.002441	0.13626	0.1059	-0.066376	-0.000305	0.03891	-0.17883	0.84549	0.076141	0.13702	-0.016327	0.05722	-0.00473	-0.007324	-0.023193	0.41306	-0.001221	-0.44449	0.001526	0.002441	0.005341
5.371	0.004883	-0.023956	0.12894	-0.001068	0.013123	-0.012817	0.084076	-0.00412	-0.024567	-0.038757	0.010376	0.001221	0.24887	0.31082	-0.002747	-0.087585	0.028534	-0.13534	0.36819	0.079041	0.08728	-0.011292	0.032959	-0.023804	-0.014191	-0.031891	0.24048	-0.000305	-0.21606	0.03418	0.000763	0.009918
5.372	0.010834	-0.008392	0.15793	-0.005798	-0.004425	-0.013123	0.07309	-0.003052	-0.049286	-0.02533	0.006714	-0.003815	-0.019379	0.24399	0.067596	0.016632	0.02655	-0.12772	0.3038	0.045929	0.069427	-0.008545	0.052032	-0.047607	-0.019379	-0.032349	-0.019684	-0.002289	0.2507	-0.016937	-0.000458	-0.018921
5.373	0.000305	0.035095	0.20538	-0.006714	0.009155	0.03418	0.082092	0.011597	-0.051727	0.007324	-0.007019	-0.007172	0.224	0.11353	0.00412	-0.01358	0.014801	-0.099335	0.5809	0.0383	0.05722	0.026703	0.057983	-0.014343	-0.039673	-0.018463	-0.11475	0.005035	0.74249	-0.056305	-0.00061	-0.040894
5.374	0.00885	0.088806	0.21378	0.003357	0.011597	0.012054	0.046692	0.007019	0.06897	0.013885	-0.015106	-0.010529	0.14954	-0.018921	-0.045471	-0.096588	-0.016479	-0.083008	1.0265	0.024414	0.062103	-0.00946	0.072784	-0.041962	-0.036926	-0.009613	-0.086365	-0.000458	-0.14084	-0.048523	0.001526	-0.039215
5.375	0.007172	0.07309	0.2066	0.003052	0.002441	0.004883	0.09491	-0.000458	0.10483	-0.002136	-0.027161	0.003967	-0.01709	0.00824	-0.025177	0.30304	-0.042419	-0.096893	0.94864	-0.029144	0.053101	0.11078	0.02655	-0.037079	-0.025635	-0.007324	-0.062408	-0.002594	-0.56961	-0.032196	-0.000763	-0.043182
5.376	0.010681	0.067291	0.22537	-0.007172	0.004425	0.019226	0.14633	0.005798	0.099182	-0.004578	-0.0177	-0.006409	-0.20294	-0.019226	-0.016479	0.13229	-0.057373	-0.16235	0.23605	0.020905	0.016785	0.30151	0.042267	-0.017548	-0.036469	-0.028381	0.000763	-0.006104	-0.37064	0.005188	-0.000305	-0.03891
5.377	0.00946	0.058289	0.15472	0.005035	-0.00061	0.005798	0.1506	-0.002136	0.06546	-0.028076	0.003204	-0.008698	-0.21851	0.061188	-0.00412	-0.13229	-0.055237	-0.14252	0.11139	0.087433	-0.028229	0.14236	0.01709	0.036163	-0.020599	-0.035095	0.043945	-0.010223	0.005188	0.005646	0.005035	-0.036316
5.378	0.005188	0.059967	0.1593	0.015106	0.002136	0.016937	0.14252	0.000305	0.020752	-0.13245	0.000763	0.00061	0.02121	0.25345	0.055237	-0.070801	-0.034943	-0.09079	0.4892	0.06134	-0.011902	0.079956	0.05188	-0.024414	-0.000153	-0.037689	0.066376	-0.007477	0.088348	-0.00351	0.003052	-0.033417
5.379	0.001984	0.048065	0.099182	0.028534	0.012512	0.010223	0.1297	0.008545	0.010529	-0.15991	0.011902	-0.006561	0.11765	0.15793	0.037994	-0.003815	-0.01297	-0.070953	1.3448	-0.020599	0.011749	-0.011749	0.031281	0.008087	0.011139	-0.043793	0.05722	-0.009766	0.064545	0.036621	0.003815	-0.029755
5.38	0.007172	0.072479	0.2478	0.014954	-0.002136	0.010223	0.070953	0.016479	0.038757	-0.058136	0.021973	-0.006561	0.15182	-0.050507	-0.048523	-0.02594	0.02594	-0.12192	1.7093	-0.092773	0.024109	-0.054169	0.014801	-0.0354	0.009155	0.018158	0.037384	-0.009918	0.077667	0.021667	0.001984	-0.020294
5.381	0.007782	0.071564	0.27756	0.00946	-0.005341	-0.008545	0.078735	0.003662	0.12466	-0.035706	0.001068	-0.041351	0.069275	-0.021057	-0.024872	0.002289	0.02594	-0.24719	0.70465	-0.017395	0.050507	-0.032806	0.006714	-0.045624	0.006714	0.054474	0.045166	-0.009766	0.24567	-0.020752	0.002747	-0.014038
5.382	-0.003357	0.05127	0.31036	0.009766	0.023651	-0.010834	0.20706	-0.024872	0.13245	-0.073547	-0.009918	-0.043488	0.022583	0.08667	0.002289	0.041809	0.02182	-0.32898	0.31036	0.042114	0.066833	-0.023499	-0.012665	-0.032501	0.006866	0.022278	0.037384	0.001678	0.3656	-0.014801	0.000763	-0.0177
5.383	0.002899	0.062103	0.4068	0.012512	-0.000153	-0.023956	0.22369	-0.014648	0.080719	-0.10071	-0.001526	0.30167	0.00473	0.26459	0.050659	0.040894	-0.002747	-0.26749	0.45578	0.049896	0.12314	-0.021973	0.008698	-0.033417	0.0177	0.027618	0.039673	0.001984	0.50034	-0.032654	0.002899	-0.014954
5.384	-0.003204	0.13168	0.48691	0.014496	0.017242	-0.010681	0.215	-0.000763	-0.031128	-0.045471	0.002899	-0.13229	0.35278	0.35492	0.10452	0.028839	-0.038452	-0.17258	0.3241	0.042419	-0.030975	0.086975	0.008087	-0.073547	0.007629	0.048828	0.063324	-0.001984	0.38177	-0.025482	0.003357	-0.014038
5.385	0.006104	0.1561	0.37491	0.012512	0.021667	-0.021667	0.081329	-0.007019	-0.025024	0.049591	-0.00473	-0.00885	0.51407	0.10269	0.068207	0.013733	-0.050507	-0.11444	0.46097	-0.026093	0.036011	0.21393	0.010681	-0.080414	0.020905	0.069733	0.059509	-0.003967	0.12253	-0.011444	0	-0.012512
5.386	0.010529	0.14084	0.31845	0.016632	0.015106	-0.016022	0.028687	0.004272	0.040283	0.048065	-0.011597	-0.01297	0.24597	-0.17471	0.033112	-0.010071	-0.040588	-0.13275	0.50079	-0.007324	-0.005646	0.21576	0.001678	-0.053558	0.008698	0.10117	0.067902	-0.003357	-0.018616	0.013733	0.003967	-0.014343
5.387	0.001068	0.13504	0.37506	-0.031433	-0.001831	0.026245	0.13077	-0.003662	0.042114	0.089111	-0.038605	-0.032806	0.020447	-0.41718	-0.057983	-0.023346	-0.018463	-0.11154	-0.058136	-0.002136	-0.057831	0.097656	0.037231	0.018463	0.00885	0.059357	0.028534	-0.000763	0.003662	-0.033417	0.001984	-0.020599
5.388	-0.002899	0.12894	0.31387	-0.033722	-0.040436	0.034943	0.19302	-0.007172	0.03418	0.02655	-0.069427	-0.020905	-0.64453	-0.45837	-0.070038	-0.016479	-0.021515	-0.11932	-0.14038	0.002747	-0.003357	0.070953	0.006104	0.025177	0.001373	0.068817	0.021667	-0.006561	0.11429	-0.10056	0.000916	-0.00946
5.389	-0.002594	0.12512	0.34958	-0.033112	-0.045013	0.008545	0.1976	0.001526	0.071869	-0.040741	-0.096741	-0.007782	-0.10147	-0.16327	-0.023651	-0.005646	-0.010223	-0.085297	0.1593	0.04715	-0.03479	0.05722	0.04715	0.007629	-0.002289	0.11688	0.046387	-0.004272	0.032501	-0.090637	-0.000305	-0.014191
5.39	0.001221	0.12283	0.34546	-0.001068	0.006866	0.002441	0.21729	-0.003052	0.046387	-0.010681	-0.073547	-0.0177	0.22919	0.26398	0.051575	0.024567	-0.004272	-0.046234	1.1118	-0.029755	-0.1413	0.10834	-0.013885	-0.037384	0.000305	0.14969	0.05722	-0.005035	-0.24857	-0.056	0.00885	-0.013123
5.391	-0.000305	0.13489	0.31418	-0.001068	0.039063	0.010834	0.22751	-0.005951	-0.036011	0.022888	0.032806	-0.013428	0.093842	0.31693	0.036774	0.020905	0.017853	-0.091095	1.0507	-0.02594	-0.14816	0.060425	0.018311	-0.071564	0.004578	0.18372	0.077209	-0.005798	-0.35736	-0.030212	-0.000763	-0.012817
5.392	-0.00824	0.14236	0.36468	0.003662	0.043945	0.015564	0.18524	0.00061	-0.033417	-0.003967	0.13718	-0.015869	0.037537	0.1329	-0.047455	0.00946	0.065002	-0.095673	0.40573	0.005646	-0.089111	-0.013275	0.032501	-0.081635	0.004578	0.20737	0.074615	-0.006256	0.15182	0.017853	0.002747	-0.010376
5.393	0.000763	0.13001	0.27618	0.021057	0.026398	-0.007935	0.15533	-0.000153	0.049896	-0.017853	0.09491	-0.011444	-0.10452	0.10681	-0.054626	0.007629	0.074005	-0.1236	0.2153	0.009613	-0.037842	-0.080414	0.041046	-0.12222	-0.001831	0.22964	0.026703	-0.001678	0.82886	0.01709	0	-0.010376
5.394	-0.000458	0.15839	0.3479	0.011749	0.044403	0.023499	0.15198	0.000458	0.052795	-0.023651	0.069733	-0.018768	-0.42893	0.085449	-0.001526	0.01297	0.058289	-0.080566	0.58456	-0.011139	-0.009766	-0.15427	0.058289	-0.094757	0.005798	0.24674	0.0383	-0.007935	0.59982	-0.021362	0.001831	-0.009766
